<svg xmlns="http://www.w3.org/2000/svg" width="760" height="380" viewBox="0 0 760 380">
<rect width="760" height="380" fill="#ffffff"/>
<line x1="70.0" y1="290.0" x2="740.0" y2="290.0" stroke="#888" stroke-width="1.0"/>
<line x1="70.0" y1="60.0" x2="70.0" y2="290.0" stroke="#888" stroke-width="1.0"/>
<line x1="70.0" y1="290.0" x2="740.0" y2="290.0" stroke="#eeeeee" stroke-width="1.0"/>
<text x="62.0" y="294.0" font-size="10" fill="#222" font-family="ui-sans-serif,system-ui,sans-serif" text-anchor="end">-0.0779</text>
<line x1="70.0" y1="244.0" x2="740.0" y2="244.0" stroke="#eeeeee" stroke-width="1.0"/>
<text x="62.0" y="248.0" font-size="10" fill="#222" font-family="ui-sans-serif,system-ui,sans-serif" text-anchor="end">-0.06</text>
<line x1="70.0" y1="198.0" x2="740.0" y2="198.0" stroke="#eeeeee" stroke-width="1.0"/>
<text x="62.0" y="202.0" font-size="10" fill="#222" font-family="ui-sans-serif,system-ui,sans-serif" text-anchor="end">-0.0421</text>
<line x1="70.0" y1="152.0" x2="740.0" y2="152.0" stroke="#eeeeee" stroke-width="1.0"/>
<text x="62.0" y="156.0" font-size="10" fill="#222" font-family="ui-sans-serif,system-ui,sans-serif" text-anchor="end">-0.0243</text>
<line x1="70.0" y1="106.0" x2="740.0" y2="106.0" stroke="#eeeeee" stroke-width="1.0"/>
<text x="62.0" y="110.0" font-size="10" fill="#222" font-family="ui-sans-serif,system-ui,sans-serif" text-anchor="end">-0.00641</text>
<line x1="70.0" y1="60.0" x2="740.0" y2="60.0" stroke="#eeeeee" stroke-width="1.0"/>
<text x="62.0" y="64.0" font-size="10" fill="#222" font-family="ui-sans-serif,system-ui,sans-serif" text-anchor="end">0.0115</text>
<text x="83.3" y="304.0" font-size="10" fill="#222" font-family="ui-sans-serif,system-ui,sans-serif" text-anchor="end" transform="rotate(-35,83.31125827814569,304)">1hw7A02</text>
<text x="105.5" y="304.0" font-size="10" fill="#222" font-family="ui-sans-serif,system-ui,sans-serif" text-anchor="end" transform="rotate(-35,105.49668874172185,304)">1jocA01</text>
<text x="127.7" y="304.0" font-size="10" fill="#222" font-family="ui-sans-serif,system-ui,sans-serif" text-anchor="end" transform="rotate(-35,127.68211920529801,304)">1ik7A00</text>
<text x="149.9" y="304.0" font-size="10" fill="#222" font-family="ui-sans-serif,system-ui,sans-serif" text-anchor="end" transform="rotate(-35,149.86754966887418,304)">1dgnA00</text>
<text x="172.1" y="304.0" font-size="10" fill="#222" font-family="ui-sans-serif,system-ui,sans-serif" text-anchor="end" transform="rotate(-35,172.05298013245033,304)">1balA00</text>
<text x="194.2" y="304.0" font-size="10" fill="#222" font-family="ui-sans-serif,system-ui,sans-serif" text-anchor="end" transform="rotate(-35,194.23841059602648,304)">1gyxA01</text>
<text x="216.4" y="304.0" font-size="10" fill="#222" font-family="ui-sans-serif,system-ui,sans-serif" text-anchor="end" transform="rotate(-35,216.42384105960264,304)">1gvhA01</text>
<text x="238.6" y="304.0" font-size="10" fill="#222" font-family="ui-sans-serif,system-ui,sans-serif" text-anchor="end" transform="rotate(-35,238.6092715231788,304)">1k8kD01</text>
<text x="260.8" y="304.0" font-size="10" fill="#222" font-family="ui-sans-serif,system-ui,sans-serif" text-anchor="end" transform="rotate(-35,260.79470198675494,304)">1inlC02</text>
<text x="283.0" y="304.0" font-size="10" fill="#222" font-family="ui-sans-serif,system-ui,sans-serif" text-anchor="end" transform="rotate(-35,282.9801324503311,304)">1jr3C02</text>
<text x="305.2" y="304.0" font-size="10" fill="#222" font-family="ui-sans-serif,system-ui,sans-serif" text-anchor="end" transform="rotate(-35,305.16556291390725,304)">1ccdA00</text>
<text x="327.4" y="304.0" font-size="10" fill="#222" font-family="ui-sans-serif,system-ui,sans-serif" text-anchor="end" transform="rotate(-35,327.3509933774834,304)">1gk9B03</text>
<text x="349.5" y="304.0" font-size="10" fill="#222" font-family="ui-sans-serif,system-ui,sans-serif" text-anchor="end" transform="rotate(-35,349.53642384105956,304)">1ecmA00</text>
<text x="371.7" y="304.0" font-size="10" fill="#222" font-family="ui-sans-serif,system-ui,sans-serif" text-anchor="end" transform="rotate(-35,371.7218543046357,304)">1ccwB02</text>
<text x="393.9" y="304.0" font-size="10" fill="#222" font-family="ui-sans-serif,system-ui,sans-serif" text-anchor="end" transform="rotate(-35,393.90728476821187,304)">1f7uA02</text>
<text x="416.1" y="304.0" font-size="10" fill="#222" font-family="ui-sans-serif,system-ui,sans-serif" text-anchor="end" transform="rotate(-35,416.0927152317881,304)">1i7xB00</text>
<text x="438.3" y="304.0" font-size="10" fill="#222" font-family="ui-sans-serif,system-ui,sans-serif" text-anchor="end" transform="rotate(-35,438.2781456953643,304)">1k4iA00</text>
<text x="460.5" y="304.0" font-size="10" fill="#222" font-family="ui-sans-serif,system-ui,sans-serif" text-anchor="end" transform="rotate(-35,460.4635761589404,304)">1j4sA00</text>
<text x="482.6" y="304.0" font-size="10" fill="#222" font-family="ui-sans-serif,system-ui,sans-serif" text-anchor="end" transform="rotate(-35,482.6490066225166,304)">1gkgA02</text>
<text x="504.8" y="304.0" font-size="10" fill="#222" font-family="ui-sans-serif,system-ui,sans-serif" text-anchor="end" transform="rotate(-35,504.8344370860927,304)">1frmA00</text>
<text x="527.0" y="304.0" font-size="10" fill="#222" font-family="ui-sans-serif,system-ui,sans-serif" text-anchor="end" transform="rotate(-35,527.0198675496688,304)">1c80A00</text>
<text x="549.2" y="304.0" font-size="10" fill="#222" font-family="ui-sans-serif,system-ui,sans-serif" text-anchor="end" transform="rotate(-35,549.205298013245,304)">1iv8A05</text>
<text x="571.4" y="304.0" font-size="10" fill="#222" font-family="ui-sans-serif,system-ui,sans-serif" text-anchor="end" transform="rotate(-35,571.3907284768211,304)">1by1A00</text>
<text x="593.6" y="304.0" font-size="10" fill="#222" font-family="ui-sans-serif,system-ui,sans-serif" text-anchor="end" transform="rotate(-35,593.5761589403974,304)">1jqoA03</text>
<text x="615.8" y="304.0" font-size="10" fill="#222" font-family="ui-sans-serif,system-ui,sans-serif" text-anchor="end" transform="rotate(-35,615.7615894039735,304)">1in4A03</text>
<text x="637.9" y="304.0" font-size="10" fill="#222" font-family="ui-sans-serif,system-ui,sans-serif" text-anchor="end" transform="rotate(-35,637.9470198675497,304)">1fjrA02</text>
<text x="660.1" y="304.0" font-size="10" fill="#222" font-family="ui-sans-serif,system-ui,sans-serif" text-anchor="end" transform="rotate(-35,660.1324503311258,304)">1ad3A02</text>
<text x="682.3" y="304.0" font-size="10" fill="#222" font-family="ui-sans-serif,system-ui,sans-serif" text-anchor="end" transform="rotate(-35,682.317880794702,304)">1eb6A00</text>
<text x="704.5" y="304.0" font-size="10" fill="#222" font-family="ui-sans-serif,system-ui,sans-serif" text-anchor="end" transform="rotate(-35,704.5033112582781,304)">1atgA02</text>
<text x="726.7" y="304.0" font-size="10" fill="#222" font-family="ui-sans-serif,system-ui,sans-serif" text-anchor="end" transform="rotate(-35,726.6887417218543,304)">1fmtB01</text>
<text x="405.0" y="54.0" font-size="13" fill="#222" font-family="ui-sans-serif,system-ui,sans-serif" text-anchor="middle">P1 − P0, ca_rmsd @ 1 ns — per domain (positive = better)</text>
<text x="16.0" y="175.0" font-size="11" fill="#222" font-family="ui-sans-serif,system-ui,sans-serif" text-anchor="middle" transform="rotate(-90,16,175.0)">Δ ca_rmsd</text>
<line x1="70.0" y1="89.5" x2="740.0" y2="89.5" stroke="#999" stroke-width="1.0" stroke-dasharray="4,4"/>
<line x1="83.3" y1="89.5" x2="83.3" y2="267.7" stroke="#d55e00" stroke-width="3"/>
<line x1="105.5" y1="89.5" x2="105.5" y2="248.7" stroke="#d55e00" stroke-width="3"/>
<line x1="127.7" y1="89.5" x2="127.7" y2="180.4" stroke="#d55e00" stroke-width="3"/>
<line x1="149.9" y1="89.5" x2="149.9" y2="159.1" stroke="#d55e00" stroke-width="3"/>
<line x1="172.1" y1="89.5" x2="172.1" y2="139.1" stroke="#d55e00" stroke-width="3"/>
<line x1="194.2" y1="89.5" x2="194.2" y2="134.9" stroke="#d55e00" stroke-width="3"/>
<line x1="216.4" y1="89.5" x2="216.4" y2="131.9" stroke="#d55e00" stroke-width="3"/>
<line x1="238.6" y1="89.5" x2="238.6" y2="129.0" stroke="#d55e00" stroke-width="3"/>
<line x1="260.8" y1="89.5" x2="260.8" y2="128.4" stroke="#d55e00" stroke-width="3"/>
<line x1="283.0" y1="89.5" x2="283.0" y2="125.4" stroke="#d55e00" stroke-width="3"/>
<line x1="305.2" y1="89.5" x2="305.2" y2="116.8" stroke="#d55e00" stroke-width="3"/>
<line x1="327.4" y1="89.5" x2="327.4" y2="115.2" stroke="#d55e00" stroke-width="3"/>
<line x1="349.5" y1="89.5" x2="349.5" y2="111.1" stroke="#d55e00" stroke-width="3"/>
<line x1="371.7" y1="89.5" x2="371.7" y2="102.6" stroke="#d55e00" stroke-width="3"/>
<line x1="393.9" y1="89.5" x2="393.9" y2="102.1" stroke="#d55e00" stroke-width="3"/>
<line x1="416.1" y1="89.5" x2="416.1" y2="101.8" stroke="#d55e00" stroke-width="3"/>
<line x1="438.3" y1="89.5" x2="438.3" y2="94.2" stroke="#d55e00" stroke-width="3"/>
<line x1="460.5" y1="89.5" x2="460.5" y2="91.6" stroke="#d55e00" stroke-width="3"/>
<line x1="482.6" y1="89.5" x2="482.6" y2="91.0" stroke="#d55e00" stroke-width="3"/>
<line x1="504.8" y1="89.5" x2="504.8" y2="89.9" stroke="#d55e00" stroke-width="3"/>
<line x1="527.0" y1="89.5" x2="527.0" y2="88.4" stroke="#009e73" stroke-width="3"/>
<line x1="549.2" y1="89.5" x2="549.2" y2="88.3" stroke="#009e73" stroke-width="3"/>
<line x1="571.4" y1="89.5" x2="571.4" y2="86.6" stroke="#009e73" stroke-width="3"/>
<line x1="593.6" y1="89.5" x2="593.6" y2="86.5" stroke="#009e73" stroke-width="3"/>
<line x1="615.8" y1="89.5" x2="615.8" y2="86.4" stroke="#009e73" stroke-width="3"/>
<line x1="637.9" y1="89.5" x2="637.9" y2="85.0" stroke="#009e73" stroke-width="3"/>
<line x1="660.1" y1="89.5" x2="660.1" y2="84.4" stroke="#009e73" stroke-width="3"/>
<line x1="682.3" y1="89.5" x2="682.3" y2="83.8" stroke="#009e73" stroke-width="3"/>
<line x1="704.5" y1="89.5" x2="704.5" y2="83.3" stroke="#009e73" stroke-width="3"/>
<line x1="726.7" y1="89.5" x2="726.7" y2="82.3" stroke="#009e73" stroke-width="3"/>
<line x1="620.0" y1="64.0" x2="640.0" y2="64.0" stroke="#009e73" stroke-width="3"/>
<text x="644.0" y="68.0" font-size="10" fill="#222" font-family="ui-sans-serif,system-ui,sans-serif" text-anchor="start">better</text>
<line x1="620.0" y1="78.0" x2="640.0" y2="78.0" stroke="#d55e00" stroke-width="3"/>
<text x="644.0" y="82.0" font-size="10" fill="#222" font-family="ui-sans-serif,system-ui,sans-serif" text-anchor="start">worse</text>
</svg>
